<svg style="display: none;" aria-hidden="true" xmlns="http://www.w3.org/2000/svg" xmlns:xlink="http://www.w3.org/1999/xlink"><symbol viewBox="0 0 48 48" fill="none" id="svg-Discord_-_Original"><path d="M40.634 8.31121C37.5747 6.90744 34.294 5.87321 30.8638 5.28087C30.8013 5.26943 30.7389 5.298 30.7067 5.35514C30.2848 6.10557 29.8175 7.08457 29.4902 7.85406C25.8008 7.30172 22.1304 7.30172 18.5166 7.85406C18.1893 7.06747 17.705 6.10557 17.2811 5.35514C17.249 5.29991 17.1866 5.27134 17.1241 5.28087C13.6958 5.87132 10.4151 6.90555 7.35387 8.31121C7.32737 8.32263 7.30465 8.3417 7.28958 8.36644C1.06678 17.6632 -0.6379 26.7314 0.19836 35.6872C0.202144 35.731 0.22674 35.7729 0.260796 35.7995C4.36642 38.8146 8.34341 40.645 12.2466 41.8583C12.309 41.8773 12.3752 41.8545 12.415 41.803C13.3383 40.5422 14.1613 39.2127 14.867 37.8146C14.9086 37.7328 14.8688 37.6356 14.7837 37.6032C13.4783 37.108 12.2352 36.5042 11.0395 35.8186C10.9449 35.7634 10.9373 35.6281 11.0243 35.5633C11.2759 35.3748 11.5276 35.1786 11.7679 34.9805C11.8114 34.9443 11.872 34.9367 11.9231 34.9595C19.7786 38.5461 28.2831 38.5461 36.0459 34.9595C36.097 34.9348 36.1576 34.9424 36.203 34.9786C36.4433 35.1767 36.6949 35.3748 36.9484 35.5633C37.0354 35.6281 37.0298 35.7634 36.9352 35.8186C35.7394 36.5176 34.4964 37.108 33.189 37.6014C33.1039 37.6337 33.0661 37.7328 33.1077 37.8146C33.8285 39.2108 34.6515 40.5402 35.5578 41.8012C35.5956 41.8545 35.6637 41.8773 35.7262 41.8583C39.6483 40.645 43.6252 38.8146 47.7309 35.7995C47.7668 35.7729 47.7895 35.7329 47.7933 35.6891C48.7942 25.3352 46.117 16.3413 40.6964 8.36833C40.6832 8.3417 40.6605 8.32263 40.634 8.31121ZM16.04 30.234C13.675 30.234 11.7263 28.0627 11.7263 25.3962C11.7263 22.7296 13.6372 20.5583 16.04 20.5583C18.4617 20.5583 20.3916 22.7487 20.3538 25.3962C20.3538 28.0627 18.4428 30.234 16.04 30.234ZM31.9895 30.234C29.6245 30.234 27.6758 28.0627 27.6758 25.3962C27.6758 22.7296 29.5867 20.5583 31.9895 20.5583C34.4113 20.5583 36.3411 22.7487 36.3033 25.3962C36.3033 28.0627 34.4113 30.234 31.9895 30.234Z" fill="#5865F2"/></symbol>

<symbol viewBox="0 0 48 48" fill="none" id="svg-YouTube_-_Original"><g clip-path="url(#bclip0_17_47)"><path d="M47.044 12.3709C46.7726 11.3497 46.2378 10.4178 45.493 9.66822C44.7483 8.91869 43.8197 8.37791 42.8003 8.1C39.0476 7.09091 24.0476 7.09091 24.0476 7.09091C24.0476 7.09091 9.04761 7.09091 5.29488 8.1C4.27547 8.37791 3.34693 8.91869 2.60218 9.66822C1.85744 10.4178 1.32262 11.3497 1.05124 12.3709C0.0476075 16.14 0.0476074 24 0.0476074 24C0.0476074 24 0.0476075 31.86 1.05124 35.6291C1.32262 36.6503 1.85744 37.5822 2.60218 38.3318C3.34693 39.0813 4.27547 39.6221 5.29488 39.9C9.04761 40.9091 24.0476 40.9091 24.0476 40.9091C24.0476 40.9091 39.0476 40.9091 42.8003 39.9C43.8197 39.6221 44.7483 39.0813 45.493 38.3318C46.2378 37.5822 46.7726 36.6503 47.044 35.6291C48.0476 31.86 48.0476 24 48.0476 24C48.0476 24 48.0476 16.14 47.044 12.3709Z" fill="#FF0302"/><path d="M19.1385 31.1373V16.8628L31.684 24.0001L19.1385 31.1373Z" fill="#FEFEFE"/></g><defs><clipPath id="bclip0_17_47"><path fill="#fff" d="M0 0H48V48H0z"/></clipPath></defs></symbol>

<symbol viewBox="0 0 25 25" fill="none" id="svg-headericon2"><path d="M12.5394 24.1777C5.94106 24.1777 0.592041 18.8367 0.592041 12.2482C0.592041 5.65981 5.94106 0.318817 12.5394 0.318817C19.1378 0.318817 24.4868 5.65981 24.4868 12.2482C24.4759 18.8322 19.1333 24.1668 12.5394 24.1777ZM12.5394 1.67861C6.69318 1.67861 1.95388 6.4108 1.95388 12.2482C1.95388 18.0857 6.69318 22.8179 12.5394 22.8179C18.3856 22.8179 23.1249 18.0857 23.1249 12.2482C23.1177 6.4138 18.3826 1.68585 12.5394 1.67861Z" fill="#212A2F"/><path fill-rule="evenodd" clip-rule="evenodd" d="M12.6775 16.8926C13.0986 16.8899 13.4796 17.1411 13.6426 17.5287 13.8055 17.9163 13.7182 18.3638 13.4215 18.6621 13.1247 18.9603 12.6771 19.0503 12.2879 18.89 11.8986 18.7298 11.6447 18.3509 11.6447 17.9305 11.6482 17.3613 12.1075 16.8997 12.6775 16.8926zM13.3421 15.5065V14.8102C13.336 14.5265 13.3806 14.244 13.4737 13.9759 13.559 13.7473 13.674 13.5308 13.8158 13.3321 13.9641 13.1203 14.1315 12.9224 14.3158 12.7409 14.5 12.5504 14.6908 12.3731 14.8816 12.1891 15.0724 12.0052 15.2631 11.8016 15.4474 11.5979 15.6347 11.3971 15.8001 11.1769 15.9408 10.941 16.2832 10.3941 16.4592 9.75967 16.4474 9.1148 16.4571 8.59354 16.3632 8.07554 16.171 7.59078 15.9965 7.1667 15.7316 6.78563 15.3947 6.47404 15.0474 6.1612 14.64 5.92207 14.1974 5.77114 13.7034 5.60605 13.1854 5.52392 12.6645 5.52809 12.0871 5.52128 11.5143 5.63076 10.9802 5.84997 10.4901 6.05561 10.0519 6.3675 9.69736 6.76307 9.34302 7.16317 9.07237 7.62997 8.9013 8.13601 8.70831 8.68185 8.61906 9.25886 8.63814 9.8374 8.63814 10.2582 8.97982 10.5994 9.4013 10.5994 9.82278 10.5994 10.1645 10.2582 10.1645 9.8374 10.1598 9.44507 10.2085 9.05392 10.3092 8.67467 10.3942 8.3357 10.5488 8.01805 10.7631 7.74187 10.9731 7.46858 11.2403 7.24439 11.546 7.08496 11.8943 6.92485 12.2746 6.84622 12.6579 6.85504 13.2224 6.82532 13.7751 7.02427 14.1908 7.40684 14.597 7.82031 14.8319 8.37162 14.8487 8.95057 14.877 9.33412 14.8232 9.71931 14.6908 10.0805 14.5592 10.3893 14.3793 10.6753 14.1579 10.9279 13.9341 11.1875 13.6946 11.4332 13.4408 11.6636 13.1804 11.9029 12.9344 12.1574 12.7039 12.4256 12.4675 12.7124 12.2685 13.0281 12.1118 13.365 11.9416 13.7711 11.8501 14.2058 11.8421 14.646V15.4999C11.8421 15.9208 12.1838 16.2619 12.6052 16.2619 13.0267 16.2619 13.3684 15.9208 13.3684 15.4999" fill="#212A2F"/></symbol>

<symbol viewBox="0 0 34 31" fill="none" id="svg-headericon3"><g clip-path="url(#dclip0_1_39)" fill-rule="evenodd" clip-rule="evenodd" fill="#231F20"><path d="M8.42963 6.2142L11.5266 21.7802L28.3366 20.7912L31.7276 6.0342H20.0506L8.42963 6.2142ZM11.0356 23.0172C10.7506 23.0172 10.5006 22.8152 10.4446 22.5312L7.13863 5.9112L4.56963 3.2072H0.603634C0.270634 3.2072 -0.000366211 2.9372 -0.000366211 2.6042C-0.000366211 2.2702 0.270634 2.0002 0.603634 2.0002H4.82863C4.99463 2.0002 5.15263 2.0682 5.26663 2.1882L7.95163 5.0142L20.0416 4.8272H32.4856C32.6696 4.8272 32.8436 4.9112 32.9576 5.0552C33.0726 5.1992 33.1156 5.3872 33.0736 5.5662L29.4116 21.5022C29.3516 21.7632 29.1266 21.9542 28.8596 21.9692L11.0726 23.0162C11.0606 23.0172 11.0486 23.0172 11.0356 23.0172Z"/><path d="M29.4276 25.4718H11.1166C10.7836 25.4718 10.5126 25.2008 10.5126 24.8678V22.4128C10.5126 22.0798 10.7836 21.8098 11.1166 21.8098 11.4496 21.8098 11.7206 22.0798 11.7206 22.4128V24.2638H29.4276C29.7606 24.2638 30.0316 24.5348 30.0316 24.8678 30.0316 25.2008 29.7606 25.4718 29.4276 25.4718zM14.417 28.2785C14.417 29.5785 13.363 30.6325 12.063 30.6325 10.763 30.6325 9.70898 29.5785 9.70898 28.2785 9.70898 26.9785 10.763 25.9245 12.063 25.9245 13.363 25.9245 14.417 26.9785 14.417 28.2785zM30.2723 28.2785C30.2723 29.5785 29.2183 30.6325 27.9183 30.6325 26.6183 30.6325 25.5643 29.5785 25.5643 28.2785 25.5643 26.9785 26.6183 25.9245 27.9183 25.9245 29.2183 25.9245 30.2723 26.9785 30.2723 28.2785z"/></g><defs><clipPath id="dclip0_1_39"><path fill="#fff" d="M0 0H34V31H0z"/></clipPath></defs></symbol></svg>