<svg width="7" height="12" viewBox="0 0 7 12" fill="none" xmlns="http://www.w3.org/2000/svg">
<path d="M5.83369 7.79251L4.1687 9.45798V1.19183C4.1687 0.829081 3.87466 0.535034 3.51206 0.535034C3.14931 0.535034 2.85526 0.829081 2.85526 1.19183V9.45798L1.19028 7.79251C0.938351 7.53146 0.522425 7.52425 0.261531 7.77634C0.000636086 8.02826 -0.00657094 8.44403 0.245355 8.70492C0.2508 8.71053 0.256085 8.71582 0.261531 8.7211L3.04697 11.5072C3.10783 11.5679 3.1799 11.6161 3.25918 11.6491C3.42077 11.7175 3.60319 11.7175 3.76495 11.6491C3.84423 11.6161 3.9163 11.5679 3.977 11.5072L6.76243 8.7211C7.02333 8.46917 7.03053 8.05341 6.77861 7.79251C6.52652 7.53162 6.11076 7.52441 5.84986 7.77634C5.84442 7.78162 5.83897 7.78691 5.83369 7.79251Z" fill="white"/>
</svg>
